<svg fill="white" xmlns="http://www.w3.org/2000/svg" width="512" height="512" viewBox="0 0 512 512" version="1.1">
	<path d="M 125.623 99.385 C 80.641 121.742, 47.970 138.554, 46.873 139.908 C 44.326 143.053, 44.440 149.018, 47.111 152.414 C 48.328 153.961, 55.104 158.044, 63.111 162.056 L 77 169.013 77.032 204.257 C 77.059 234.112, 77.295 239.806, 78.574 241.500 C 79.405 242.600, 88.503 247.775, 98.793 253 L 117.500 262.500 117.750 278.500 C 117.899 288.070, 118.459 295.386, 119.144 296.705 C 120.737 299.772, 126.413 302.288, 129.974 301.506 C 131.558 301.158, 134.012 299.715, 135.427 298.300 C 137.889 295.838, 138 295.237, 138 284.375 L 138 273.022 171.053 289.511 C 189.232 298.580, 204.959 306, 206.003 306 C 207.047 306, 223.653 298.140, 242.906 288.533 C 280.072 269.987, 281.400 269.081, 281.400 262.244 C 281.400 257.799, 276.497 253, 271.955 253 C 270.091 253, 256.922 258.905, 237.427 268.481 L 205.912 283.962 171.956 266.978 L 138 249.994 138 224.997 C 138 208.896, 138.358 200, 139.006 200 C 139.560 200, 153.957 206.975, 171 215.500 C 188.043 224.025, 203.100 231, 204.460 231 C 205.820 231, 230.354 219.300, 258.981 205 C 287.608 190.700, 311.248 179, 311.515 179 C 311.782 179, 312 184.864, 312 192.032 C 312 207.023, 313.110 210.971, 318.043 213.522 C 322.142 215.642, 326.892 214.808, 330.090 211.406 C 332.450 208.897, 332.507 208.415, 332.824 188.392 L 333.148 167.940 346.088 161.456 C 353.206 157.889, 359.922 154.078, 361.014 152.986 C 363.939 150.061, 363.785 142.074, 360.750 139.271 C 357.817 136.561, 206.488 60.973, 204.227 61.088 C 203.277 61.136, 167.906 78.369, 125.623 99.385 M 140.954 114.685 L 77.500 146.169 103.485 159.206 L 129.471 172.243 150.742 161.622 C 162.440 155.780, 172.932 151, 174.056 151 C 179.358 151, 184.250 156.045, 184.250 161.512 C 184.250 166.381, 180.857 169.269, 166.479 176.640 L 152.551 183.781 178.281 196.634 L 204.011 209.487 267.255 177.870 L 330.499 146.253 267.454 114.727 L 204.409 83.201 140.954 114.685 M 202.327 138.696 C 198.686 139.405, 195 143.879, 195 147.589 C 195 153.622, 197.150 156.420, 203.306 158.399 C 206.178 159.323, 211.722 156.438, 213.434 153.128 C 216.496 147.206, 214.580 141.976, 208.401 139.394 C 206.566 138.627, 204.937 138.061, 204.782 138.136 C 204.627 138.211, 203.522 138.463, 202.327 138.696 M 397.916 178.462 C 390.843 180.256, 382.643 183.938, 377.500 187.629 C 375.300 189.208, 338.791 225.375, 296.369 268 C 213.858 350.905, 215.653 348.888, 212.508 362.231 C 206.502 387.703, 220.278 411.022, 245.500 418.081 C 248.250 418.850, 255 419.485, 260.500 419.490 C 269.414 419.499, 271.113 419.199, 276.142 416.730 C 282.753 413.483, 289.314 406.760, 292.296 400.176 C 293.905 396.624, 294.424 393.452, 294.457 386.982 C 294.496 379.328, 294.167 377.787, 291.213 371.785 C 287.268 363.767, 281.011 357.896, 273.360 355.033 C 265.738 352.182, 263.388 352.412, 259.400 356.400 C 253.155 362.645, 255.227 369.442, 264.648 373.608 C 271.177 376.495, 273.991 380.534, 273.996 387.027 C 274 391.463, 272.285 395.165, 269.046 397.718 C 266.940 399.378, 254.390 399.323, 248.761 397.628 C 242.216 395.659, 237.436 391.591, 234.418 385.422 C 232.114 380.712, 231.831 379.066, 232.143 372.193 C 232.445 365.558, 232.969 363.584, 235.532 359.440 C 239.497 353.026, 246.949 347.451, 254.855 344.983 C 262.505 342.596, 267.617 342.489, 275.530 344.550 C 288.678 347.974, 297.563 355.108, 303.081 366.671 C 309.296 379.693, 307.966 397.107, 299.807 409.514 C 291.778 421.725, 282.100 428.152, 269.135 429.884 C 260.768 431.002, 257.412 433.288, 256.427 438.538 C 255.733 442.238, 257.955 447.371, 260.945 448.970 C 266.586 451.990, 282.004 449.059, 294.838 442.529 C 303.612 438.063, 303.855 437.835, 335.501 404.268 C 353.011 385.696, 367.712 370.350, 368.169 370.167 C 368.626 369.983, 369 375.080, 369 381.494 C 369 393.048, 369.027 393.180, 371.923 396.077 C 376.830 400.983, 384.654 399.630, 387.883 393.316 C 388.590 391.933, 389 384.138, 389 372.066 L 389 353 408.923 353 L 428.846 353 431.923 349.923 C 436.215 345.631, 436.215 340.369, 431.923 336.077 L 428.846 333 415.673 332.955 L 402.500 332.909 423.638 312.205 C 444.895 291.383, 449.501 285.714, 453.863 275 C 458.355 263.967, 457.629 256.411, 451.786 253.389 C 445.782 250.285, 438.906 254.210, 436.570 262.075 C 433.391 272.780, 429.273 278.532, 415.464 291.552 C 408.203 298.398, 401.978 304, 401.631 304 C 401.284 304, 401 302.732, 401 301.182 C 401 299.631, 400.286 295.960, 399.414 293.023 L 397.828 287.683 430.779 254.591 C 448.902 236.391, 464.466 220.387, 465.365 219.027 C 468.820 213.804, 466.775 208.089, 457.682 197.557 C 451.685 190.610, 441.174 183.564, 431.977 180.324 C 422.774 177.081, 406.801 176.208, 397.916 178.462 M 97.233 204.247 L 97.500 229.500 106.500 234.214 C 111.450 236.806, 116.063 238.944, 116.750 238.964 C 117.717 238.992, 118 233.398, 118 214.228 L 118 189.456 107.483 184.225 L 96.966 178.995 97.233 204.247 M 404.594 198.057 C 393.724 199.878, 389.038 203.406, 366.162 226.996 C 348.850 244.849, 345.273 249, 347.202 249 C 355.802 249, 370.632 255.511, 380.371 263.563 L 387.243 269.244 415.604 240.896 L 443.965 212.548 440.343 208.839 C 435.527 203.907, 426.864 199.424, 419.566 198.087 C 412.966 196.878, 411.649 196.875, 404.594 198.057 M 329.500 270.345 C 321.622 272.956, 317.350 276.006, 307.126 286.319 L 296.752 296.783 304.056 298.445 C 314.383 300.793, 324.534 305.779, 332.159 312.248 L 338.714 317.808 355.574 300.926 L 372.434 284.043 368.967 280.458 C 367.060 278.486, 362.197 275.238, 358.161 273.240 C 351.702 270.044, 349.781 269.572, 342.161 269.313 C 336.859 269.133, 331.949 269.533, 329.500 270.345 M 362.492 323.008 C 352.608 332.903, 343.011 341.716, 341.164 342.593 C 335.283 345.383, 331.627 343.886, 326.326 336.518 C 320.962 329.062, 313.187 322.968, 305.192 319.955 C 297.816 317.176, 283.954 317.524, 277 320.665 L 272.500 322.697 278.500 323.931 C 302.397 328.848, 323.655 351.055, 326.585 374.165 C 326.957 377.099, 327.540 380.015, 327.881 380.645 C 328.240 381.309, 337.958 371.758, 351 357.925 C 375.870 331.547, 379.350 326.548, 380.882 315 C 382.454 303.144, 382.240 303.237, 362.492 323.008 M 125.500 312.860 C 119.381 314.817, 118 317.650, 118 328.246 C 118 335.369, 118.314 336.960, 120.096 338.873 C 124.627 343.736, 130.819 343.909, 135.427 339.300 C 137.778 336.949, 138 336.011, 138 328.411 C 138 323.837, 137.500 318.997, 136.890 317.657 C 135.241 314.038, 129.447 311.598, 125.500 312.860" stroke="none" fill-rule="evenodd"/>
</svg>