<svg  fill="white" xmlns="http://www.w3.org/2000/svg" width="512" height="512" viewBox="0 0 512 512" version="1.1">
	<path d="M 239.860 30.503 L 211.219 44.897 203.336 40.870 C 196.613 37.435, 194.240 36.759, 187.210 36.277 C 168.665 35.006, 153.041 43.931, 144.696 60.563 C 141.872 66.191, 139.702 76.371, 140.185 81.722 C 140.487 85.071, 140.296 85.294, 135.500 87.183 C 124.640 91.460, 114.734 101.636, 110.951 112.400 C 107.565 122.032, 107.442 130.810, 110.542 141.567 C 111.030 143.260, 110.379 143.976, 106.945 145.525 C 100.972 148.218, 92.014 157.477, 88.627 164.457 C 84.797 172.349, 83.353 181.917, 84.747 190.157 C 85.338 193.646, 86.090 197.175, 86.420 198 C 86.839 199.049, 85.658 200.221, 82.498 201.895 C 72.755 207.057, 64.471 217.876, 61.361 229.500 C 57.888 242.482, 61.672 258.096, 70.715 268.106 L 74.342 272.121 37.743 308.811 C 6.182 340.449, 1.051 346.005, 0.475 349.172 C -1.316 359.015, 5.197 367, 15.016 367 C 17.280 367, 20.114 366.503, 21.316 365.895 C 22.517 365.288, 40.249 348.091, 60.720 327.680 L 97.941 290.569 110.268 290.535 C 122.471 290.500, 122.671 290.462, 130.206 286.741 C 142.472 280.682, 150.952 269.901, 153.533 257.086 L 154.624 251.671 161.383 249.820 C 170.242 247.393, 174.543 245.120, 180.552 239.690 C 186.903 233.952, 191.539 226.189, 193.598 217.845 L 195.231 211.231 201.845 209.598 C 210.189 207.539, 217.952 202.903, 223.690 196.552 C 229.120 190.543, 231.393 186.242, 233.820 177.383 L 235.671 170.624 241.086 169.533 C 253.901 166.952, 264.682 158.472, 270.741 146.206 C 274.462 138.672, 274.500 138.471, 274.535 126.270 L 274.569 113.945 301.035 87.406 C 315.591 72.810, 328.715 60.222, 330.200 59.434 C 333.849 57.496, 339.559 57.627, 343.117 59.728 C 347.272 62.183, 350.399 69.040, 349.526 73.783 C 348.949 76.916, 345.651 80.721, 328.535 98 C 317.367 109.275, 307.728 119.483, 307.115 120.684 C 305.543 123.764, 305.731 130.578, 307.480 133.961 C 309.452 137.774, 313.455 140.807, 317.523 141.570 C 324.337 142.849, 326.818 141.384, 340.600 127.939 C 354.430 114.448, 356.999 112.962, 363.880 114.474 C 367.089 115.179, 372.359 120.405, 373.507 124.021 C 373.883 125.205, 373.881 127.822, 373.503 129.837 C 372.939 132.843, 369.896 136.461, 356.547 150 C 347.598 159.075, 339.727 167.553, 339.055 168.840 C 338.383 170.127, 337.833 173.171, 337.833 175.605 C 337.833 184.076, 343.924 190.167, 352.395 190.167 C 358.264 190.167, 359.992 189.118, 370.036 179.460 C 379.295 170.558, 382.582 169.047, 388.464 170.988 C 392.305 172.256, 396.669 176.834, 397.610 180.584 C 399.258 187.150, 397.614 189.646, 379.747 207.698 L 362.668 224.954 362.224 230.314 C 361.540 238.560, 365.662 244.538, 373.310 246.388 C 379.397 247.861, 382.785 246.155, 393.065 236.438 C 403.353 226.716, 405.229 225.798, 412 227.180 C 415.877 227.971, 420.601 232.561, 421.589 236.499 C 421.936 237.882, 421.919 240.698, 421.551 242.757 C 420.961 246.062, 414.368 253.004, 365.191 302.102 C 307.075 360.125, 305.771 361.272, 292.336 366.181 C 287.185 368.063, 283.567 368.385, 261.500 368.932 C 243.665 369.374, 235.784 369.932, 234 370.880 C 230.591 372.692, 132.233 470.817, 130.435 474.200 C 129.646 475.686, 129 478.745, 129 481 C 129 490.619, 137.140 497.285, 146.757 495.541 C 150.042 494.945, 156.376 488.996, 198.514 446.931 L 246.527 399 256 399 L 265.473 399 313.486 446.931 C 355.624 488.996, 361.958 494.945, 365.243 495.541 C 371.888 496.746, 378.589 493.629, 381.515 487.971 C 383.265 484.588, 383.459 477.777, 381.895 474.684 C 381.288 473.483, 363.258 454.918, 341.828 433.428 L 302.866 394.357 309.234 391.650 C 322.565 385.985, 327.214 381.959, 372.515 336.849 L 416.531 293.020 452.015 328.575 C 471.532 348.131, 488.715 364.776, 490.200 365.565 C 497.234 369.302, 506.499 366.088, 510.669 358.466 C 512.894 354.400, 513.833 347.367, 512 348.500 C 511.450 348.840, 511 348.318, 511 347.340 C 511 346.337, 495.033 329.574, 474.329 308.842 L 437.658 272.121 441.444 267.931 C 452.577 255.608, 454.938 235.718, 447.107 220.216 C 443.690 213.451, 435.774 205.218, 429.482 201.885 C 426.337 200.218, 425.162 199.048, 425.580 198 C 425.910 197.175, 426.668 193.613, 427.265 190.085 C 428.634 181.991, 427.105 172.151, 423.238 164.183 C 419.918 157.340, 411.051 148.203, 405.173 145.567 C 401.617 143.973, 400.970 143.272, 401.475 141.567 C 406.492 124.624, 402.749 108.810, 390.908 96.927 C 387.832 93.841, 383.437 90.457, 381.142 89.408 C 377.839 87.898, 377.075 87.083, 377.478 85.500 C 380.831 72.321, 380.199 63.297, 375.171 52.551 C 371.537 44.785, 367.045 39.646, 359.779 34.942 C 343.924 24.677, 321.818 26.136, 308.311 38.338 L 304.368 41.900 292.956 30.456 C 280.971 18.437, 277.349 15.965, 271.849 16.054 C 269.606 16.090, 259.043 20.861, 239.860 30.503 M 250.243 58.812 L 232.986 67.518 244.494 78.994 L 256.002 90.470 269.496 77.004 L 282.989 63.539 276.271 56.769 C 272.577 53.046, 269.092 50.024, 268.527 50.053 C 267.962 50.082, 259.734 54.024, 250.243 58.812 M 176.719 67.777 C 175.189 68.724, 173.004 71.427, 171.863 73.783 C 167.849 82.075, 168.052 82.380, 197.326 111.857 C 211.721 126.354, 224.948 138.841, 226.718 139.607 C 230.924 141.428, 233.430 141.364, 237.717 139.330 C 244.193 136.257, 246.978 127.625, 243.566 121.200 C 241.842 117.952, 192.429 68.681, 189.316 67.106 C 186.099 65.477, 179.897 65.807, 176.719 67.777 M 146.418 114.969 C 143.668 116.081, 139.160 121.513, 138.369 124.668 C 136.861 130.676, 139.109 133.678, 162.717 157.179 C 177.295 171.691, 186.493 180.104, 188.257 180.539 C 195.222 182.260, 203.288 177.312, 204.559 170.539 C 205.951 163.115, 204.970 161.720, 182.215 138.786 C 170.366 126.843, 159.215 116.381, 157.435 115.536 C 153.911 113.864, 149.688 113.646, 146.418 114.969 M 122.415 171.421 C 118.930 172.939, 115.246 177.173, 114.368 180.669 C 112.815 186.856, 114.646 189.852, 128.699 204.130 C 142.581 218.235, 146.406 221, 152.033 221 C 161.114 221, 167.777 210.140, 163.569 202.200 C 161.419 198.145, 134.921 172.256, 131.685 171.049 C 128.058 169.697, 126.204 169.772, 122.415 171.421 M 100.207 227.092 C 92.467 228.674, 87.601 238.429, 91.115 245.316 C 92.732 248.485, 102.045 257.914, 105.200 259.577 C 111.643 262.972, 120.260 260.187, 123.330 253.717 C 126.661 246.697, 124.875 241.903, 115.752 233.378 C 108.936 227.009, 106.140 225.878, 100.207 227.092 M 0.252 352.500 C 0.263 354.700, 0.468 355.482, 0.707 354.238 C 0.946 352.994, 0.937 351.194, 0.687 350.238 C 0.437 349.282, 0.241 350.300, 0.252 352.500" stroke="none"  fill-rule="evenodd"/>
</svg>