<svg fill="white" xmlns="http://www.w3.org/2000/svg" width="512" height="512" viewBox="0 0 512 512" version="1.1">
	<path d="M 238 0.582 C 236.075 0.807, 230.225 1.475, 225 2.068 C 150.765 10.482, 80.074 55.285, 39.347 119.730 C 24.622 143.032, 11.226 176.359, 5.488 203.970 C -10.482 280.809, 9.551 359.775, 60.564 421.061 C 69.486 431.781, 89.919 451.240, 101.079 459.646 C 165.214 507.956, 247.200 523.760, 324 502.617 C 346.471 496.431, 352.284 493.537, 353.517 487.922 C 354.821 481.984, 350.021 476, 343.955 476 C 342.776 476, 337.241 477.552, 331.655 479.449 C 307.616 487.612, 288.390 491, 261.974 491.726 C 220.418 492.869, 186.023 485.156, 148.872 466.364 C 136.739 460.226, 115 446.582, 115 445.104 C 115 444.305, 122.695 403.763, 123.514 400.250 C 123.802 399.012, 124.592 397.996, 125.269 397.990 C 128.125 397.968, 136.779 393.020, 140.289 389.404 C 149.224 380.198, 151.217 368.759, 146.583 353.278 C 144.557 346.509, 144.329 344.501, 145.172 340.852 C 146.685 334.305, 145.695 323.239, 143.152 318.278 C 137.431 307.116, 130.871 303.158, 111.861 299.398 L 98.622 296.779 78.061 281.085 C 52.398 261.497, 53.147 262, 49.615 262 C 47.998 262, 41.055 263.828, 34.186 266.063 C 24.297 269.281, 21.523 269.853, 20.863 268.813 C 19.890 267.279, 19.693 245.640, 20.644 244.689 C 20.998 244.335, 22.814 245.385, 24.679 247.023 C 28.974 250.794, 32.069 250.846, 53.389 247.504 C 72.567 244.498, 75 243.168, 75 235.686 C 75 232.489, 73.753 229.911, 68.324 221.886 C 64.653 216.459, 61.840 211.854, 62.074 211.654 C 62.308 211.454, 66.775 208.134, 72 204.276 L 81.500 197.261 95 173.447 C 106.129 153.815, 109.871 148.128, 116.309 141.066 C 127 129.339, 130.254 122.447, 130.810 110.354 C 131.471 95.956, 127.073 85.737, 115.780 75.425 C 111.618 71.625, 110.547 70.118, 111.515 69.425 C 154.900 38.401, 194.238 23.853, 243.900 20.467 L 253.301 19.826 250.313 23.889 C 248.670 26.124, 244.600 31.272, 241.270 35.329 L 235.216 42.706 220.358 47.917 C 212.186 50.783, 196.953 56.119, 186.507 59.774 C 174.636 63.928, 166.762 67.238, 165.507 68.601 C 163.142 71.171, 143.979 117.517, 143.992 120.638 C 144.001 122.965, 145.328 125.007, 161.777 148.005 L 172.809 163.429 170.328 166.465 C 168.963 168.134, 165.313 172.875, 162.216 177 C 159.118 181.125, 153.349 188.325, 149.396 193 C 135.831 209.040, 130.731 221.071, 130.745 237 C 130.761 254.396, 135.733 266.758, 147.470 278.583 C 152.189 283.338, 156.637 286.700, 161 288.811 C 174.655 295.419, 185.280 296.440, 203.220 292.866 C 213.055 290.908, 214.139 290.861, 216.335 292.300 C 218.360 293.627, 218.838 294.996, 219.440 301.184 C 220.313 310.170, 222.342 314.931, 228.229 321.807 C 234.842 329.531, 235.413 333.928, 231.500 347 C 228.101 358.358, 228.276 364.325, 232.354 376 C 236.463 387.764, 247.976 416.045, 251.430 422.863 C 256.885 433.628, 262.940 438, 272.390 438 C 281.949 438, 290.727 433.586, 302.422 422.897 C 309.069 416.822, 312.296 411.637, 314.320 403.781 C 315.287 400.030, 317.470 395.824, 320.668 391.554 C 323.349 387.975, 326.432 382.739, 327.521 379.920 C 328.609 377.101, 332.038 371.856, 335.139 368.264 C 345.899 355.805, 347.633 348.999, 343.945 333.699 C 340.570 319.702, 340.781 319.235, 358.920 300.550 C 376.001 282.953, 379.571 277.290, 378.778 269.040 C 378.518 266.331, 377.523 262.921, 376.568 261.463 C 374.263 257.946, 366.237 254.462, 357 252.969 C 350.218 251.872, 349.125 251.364, 345.577 247.654 C 341.504 243.396, 336.582 233.685, 328.518 214 C 317.742 187.693, 314.029 184.202, 288.692 176.561 C 272.330 171.627, 266.035 172.032, 259.636 178.431 L 256.310 181.757 250.655 178.298 C 245.509 175.150, 245 174.523, 245 171.321 C 245 162.633, 238.248 156.576, 226.794 154.990 C 223.332 154.510, 214.875 154.459, 208 154.875 C 201.125 155.291, 195.356 155.533, 195.180 155.413 C 194.271 154.790, 199.350 146.882, 202.206 144.474 C 207.128 140.325, 211.602 138.769, 220.820 138.004 C 227.866 137.420, 229.528 136.927, 231.666 134.789 C 236.260 130.195, 234.404 121.245, 228.383 118.955 C 224.627 117.527, 215.183 117.801, 208.542 119.531 C 199.455 121.898, 191.461 126.676, 185.420 133.351 C 182.441 136.643, 179.852 139.149, 179.668 138.918 C 176.089 134.459, 166 119.367, 166 118.473 C 166 116.703, 179.840 83.566, 180.740 83.182 C 181.158 83.004, 196.350 77.602, 214.500 71.179 L 247.500 59.499 262.656 40.500 L 277.811 21.500 281.656 21.798 C 290.400 22.474, 309.630 26.227, 320.744 29.426 C 398.017 51.668, 458.740 111.325, 481.645 187.500 L 484.050 195.500 481.161 198 C 476.454 202.073, 473.145 207.272, 471.723 212.831 L 470.387 218.049 468.032 211.275 C 463.564 198.423, 461.276 194.407, 452.678 184.323 C 440.887 170.494, 437.866 169, 421.705 169 C 408.115 169, 404.274 170.202, 401.016 175.474 C 398.529 179.497, 398.304 187.561, 400.587 190.820 C 402.594 193.686, 402.105 194.295, 392.433 200.981 C 386.293 205.226, 371.551 213, 369.641 213 C 369.372 213, 364.673 204.338, 359.198 193.750 C 350.080 176.114, 349.202 173.923, 348.728 167.623 L 348.210 160.747 338.355 150.822 C 326.765 139.151, 325.407 138.247, 313.181 134.073 C 305.001 131.279, 303.439 131.030, 300.396 132.034 C 296.131 133.442, 293.800 136.807, 293.800 141.556 C 293.800 146.726, 296.852 149.398, 306.879 153.007 C 314.420 155.721, 316.346 156.945, 322.250 162.778 C 328.748 169.198, 329 169.628, 329 174.322 C 329 178.623, 330.487 182.041, 341.628 203.348 C 348.573 216.632, 354.925 228.662, 355.744 230.082 C 359.433 236.480, 364.750 236.685, 378.500 230.957 C 394.789 224.172, 408.487 215.381, 419.713 204.508 C 425.250 199.145, 425.265 199.113, 424.780 194.064 C 424.306 189.125, 424.359 189, 426.956 189 C 430.204 189, 431.160 189.767, 438.180 198 C 445.128 206.148, 444.631 205.140, 452.528 227.103 C 459.924 247.670, 461.510 250, 468.116 250 C 471.569 250, 472.889 249.278, 477.713 244.750 C 483.859 238.981, 488.943 231.751, 489.102 228.554 C 489.164 227.308, 489.572 227.877, 490.138 230 C 491.501 235.107, 491.470 272.996, 490.095 283.500 C 486.498 310.979, 479.042 335.867, 467.027 360.500 C 452.622 390.032, 434.128 413.858, 408.325 436.126 C 401.713 441.831, 398.962 444.895, 398.481 447.088 C 397.099 453.381, 402.006 459, 408.884 459 C 412.589 459, 420.435 452.885, 434.928 438.704 C 455.761 418.317, 472.207 395.525, 485.367 368.800 C 499.601 339.896, 506.467 315.977, 511.146 279 C 512.597 267.535, 513.333 241, 512.200 241 C 511.705 241, 511.018 237.063, 510.675 232.250 C 509.220 211.879, 502.539 183.569, 494.331 163 C 459.404 75.464, 384.161 16.192, 290.500 2.432 C 280.815 1.009, 245.105 -0.249, 238 0.582 M 86.847 91.750 C 56.401 122.890, 34.257 164.963, 25.033 209.195 L 23.092 218.500 29.296 224.157 C 35.435 229.755, 35.552 229.808, 40.500 229.272 C 48.439 228.412, 48.484 228.245, 42.979 219.974 C 37.675 212.004, 36.823 208.125, 39.530 204.261 C 40.371 203.059, 46.365 198.266, 52.849 193.608 C 59.334 188.950, 65.138 184.539, 65.747 183.805 C 66.356 183.070, 72.726 172.211, 79.901 159.673 C 90.063 141.916, 94.501 135.190, 99.977 129.247 C 108.467 120.033, 111 115.186, 111 108.152 C 111 101.800, 108.949 96.596, 104.699 92.162 C 102.137 89.490, 95.282 85, 93.763 85 C 93.589 85, 90.477 88.037, 86.847 91.750 M 263 118.706 C 262.175 119.008, 260.511 120.154, 259.302 121.253 C 252.739 127.219, 257.676 138, 266.970 138 C 270.624 138, 275.601 133.868, 276.290 130.261 C 277.672 123.032, 269.826 116.211, 263 118.706 M 203.975 174.999 C 188.233 176.042, 187.390 176.472, 178.888 187.800 C 174.883 193.135, 168.247 201.542, 164.142 206.482 C 152.596 220.374, 148.731 231.486, 151.031 244.170 C 155.134 266.799, 174.176 278.738, 198.134 273.705 C 214.343 270.299, 220.315 270.786, 228.453 276.177 C 235.945 281.139, 239.379 289.323, 239.956 303.586 C 239.980 304.183, 242.176 307.384, 244.836 310.698 C 253.904 321.997, 255.930 332.308, 251.978 347.055 C 248.554 359.832, 248.482 362.594, 251.365 370.531 C 255.326 381.434, 268.479 413.252, 270.059 415.750 C 272.601 419.771, 276.914 418.314, 286.782 410.102 C 292.809 405.086, 293.534 403.867, 296.611 393.578 C 297.745 389.785, 300.094 385.523, 303.147 381.720 C 305.767 378.454, 308.617 373.694, 309.480 371.141 C 311.011 366.610, 313.072 363.563, 321.750 352.996 C 324.087 350.149, 326 346.996, 326 345.989 C 326 344.982, 325.052 340.185, 323.893 335.329 C 319.338 316.238, 322.876 307.951, 344.942 286.036 L 357.491 273.573 353.495 272.756 C 341.445 270.294, 338.664 268.914, 332 262.086 C 324.838 254.748, 321.030 247.819, 311.066 223.992 C 301.726 201.660, 301.225 201.118, 285.637 196.515 L 276.063 193.687 271.674 197.733 C 262.612 206.086, 254.117 204.505, 232.557 190.452 C 223.203 184.355, 222 182.886, 222 177.566 C 222 173.482, 223.549 173.703, 203.975 174.999 M 0.400 256.500 C 0.401 264.750, 0.556 267.992, 0.744 263.704 C 0.932 259.417, 0.931 252.667, 0.742 248.704 C 0.552 244.742, 0.399 248.250, 0.400 256.500 M 34.165 286.860 L 22.830 290.500 23.466 295.500 C 23.816 298.250, 25.228 305.117, 26.604 310.759 C 34.351 342.519, 48.580 372.446, 68.570 399.027 C 75.357 408.051, 95.429 430, 96.895 430 C 97.271 430, 99.348 420.466, 101.511 408.813 C 105.993 384.665, 106.683 383.245, 115.280 380.435 C 129.423 375.813, 131.642 371.501, 127.039 357.577 C 124.719 350.556, 124.376 345.539, 125.487 334.814 C 126.274 327.214, 126.251 327.097, 123.391 324.244 C 120.856 321.715, 118.715 321.014, 106 318.553 C 98.025 317.010, 90.408 315.066, 89.073 314.235 C 87.739 313.403, 77.874 306.035, 67.153 297.861 C 56.431 289.688, 47.173 283.049, 46.579 283.110 C 45.986 283.170, 40.399 284.857, 34.165 286.860 M 389.906 320.875 C 388.633 321.906, 385.765 326.288, 383.533 330.612 C 380.940 335.636, 378.396 339.136, 376.487 340.304 C 362.724 348.730, 361.053 350.053, 358.338 354.671 C 355.779 359.026, 355.493 360.432, 355.431 369 C 355.380 376.091, 354.803 380.095, 353.156 384.793 C 348.267 398.737, 349.644 407.740, 357.934 416.029 C 370.694 428.790, 385.014 423.152, 393.567 402 C 397.263 392.862, 410 350.112, 410 346.848 C 410 343.665, 405.715 327.204, 404.101 324.189 C 401.354 319.056, 394.212 317.388, 389.906 320.875 M 380.929 360.976 C 375.251 363.978, 374.651 365.202, 375.440 372.174 C 376.044 377.508, 375.702 379.721, 372.893 388.691 C 370.445 396.508, 369.932 399.332, 370.802 400.202 C 371.671 401.071, 372.572 399.956, 374.472 395.658 C 376.719 390.579, 386 361.675, 386 359.759 C 386 358.621, 384.871 358.892, 380.929 360.976 M 374.383 460.583 C 365.397 465.016, 368.541 479, 378.523 479 C 381.397 479, 382.970 478.230, 385.727 475.473 C 388.855 472.345, 389.186 471.527, 388.661 468.223 C 387.977 463.918, 383.193 458.988, 379.734 459.023 C 378.505 459.035, 376.097 459.738, 374.383 460.583" stroke="none" fill-rule="evenodd"/>
</svg>