<svg fill="white" xmlns="http://www.w3.org/2000/svg" width="512" height="512" viewBox="0 0 512 512" version="1.1">
	<path d="M 144.892 37.395 C 132.612 40.927, 122.176 49.819, 116.260 61.789 C 112.992 68.400, 112.537 70.269, 112.175 78.552 C 111.848 86.016, 112.187 89.257, 113.876 94.816 C 120.300 115.966, 142.324 129.656, 164.034 125.994 C 197.828 120.294, 213.727 81.555, 193.552 54.070 C 188.860 47.680, 183.905 43.788, 175.347 39.774 C 169.354 36.964, 167.314 36.532, 159 36.316 C 153.340 36.169, 147.638 36.605, 144.892 37.395 M 340.772 41.345 C 314.389 50.336, 302.281 78.558, 313.994 103.759 C 322.134 121.271, 342.792 132.319, 361.578 129.206 C 384.048 125.482, 400.025 106.953, 399.988 84.661 C 399.967 71.676, 396.199 62.205, 387.374 52.953 C 375.272 40.265, 357.170 35.756, 340.772 41.345 M 143.868 55.265 C 132.568 61.114, 127.287 70.796, 128.228 83.938 C 129.829 106.317, 156.104 118.381, 174.231 105.059 C 185.785 96.569, 189.764 81.214, 183.650 68.717 C 178.392 57.971, 168.663 52, 156.409 52 C 151.324 52, 149.012 52.602, 143.868 55.265 M 346.365 56.030 C 341.002 57.686, 333.640 63.291, 330.336 68.234 C 322.569 79.856, 324.214 95.214, 334.309 105.309 C 340.221 111.221, 346.032 113.488, 355 113.382 C 363.934 113.275, 368.352 111.560, 374.652 105.753 C 381.014 99.889, 383.239 95.043, 383.788 85.857 C 384.182 79.262, 383.907 77.480, 381.782 72.857 C 376.563 61.503, 368.465 55.886, 356.567 55.369 C 352.680 55.200, 348.089 55.497, 346.365 56.030 M 249 68.035 C 226.643 72.006, 211.052 90.526, 211.012 113.161 C 210.999 120.624, 213.473 129.719, 217.288 136.228 C 221.099 142.731, 230.135 150.700, 237.724 154.252 C 250.782 160.362, 268.427 159.048, 280.813 151.043 C 295.684 141.431, 303.994 123.248, 301.206 106.422 C 297.921 86.597, 282.463 71.064, 263 68.029 C 255.775 66.902, 255.375 66.902, 249 68.035 M 250.147 84.075 C 241.015 85.871, 233.741 91.940, 229.432 101.361 C 224.011 113.214, 227.857 128.045, 238.444 136.120 C 244.280 140.571, 248.834 142.003, 257.116 141.990 C 265.267 141.978, 271.986 138.953, 277.708 132.719 C 284.639 125.169, 287.120 116.450, 285.064 106.865 C 282.691 95.798, 274.566 87.424, 263.373 84.509 C 257.006 82.851, 256.465 82.833, 250.147 84.075 M 114.127 131.471 C 101.537 136.146, 90.895 145.678, 85.081 157.486 C 79.920 167.970, 79.500 171.635, 79.500 206.143 C 79.500 235.445, 79.636 237.937, 81.337 239.818 C 84.683 243.519, 109.086 250.446, 129.500 253.489 C 139.112 254.922, 172.283 255.839, 177.088 254.804 C 178.188 254.567, 178.564 256.181, 178.790 262.113 C 179.143 271.404, 180.222 272.660, 191 276.314 C 210.033 282.766, 227.543 285.925, 248.548 286.694 C 273.310 287.602, 295.285 284.661, 318.500 277.333 C 332.067 273.050, 334 271.303, 334 263.324 L 334 257.760 345.250 258.452 C 366.405 259.751, 395.347 255.779, 417.942 248.475 C 424.121 246.477, 429.500 244.104, 430.595 242.893 C 432.385 240.913, 432.500 238.849, 432.498 208.643 C 432.495 180.305, 432.278 175.790, 430.659 170.500 C 426.667 157.457, 418.302 146.009, 408 139.491 C 402.621 136.088, 391.623 132.051, 387.652 132.021 C 386.086 132.009, 381.035 133.868, 376.428 136.151 C 368.692 139.984, 367.287 140.339, 358.075 140.782 C 346.381 141.345, 341.445 140.321, 331.257 135.215 C 324.115 131.636, 323.931 131.602, 318.256 132.786 C 304.921 135.568, 291.738 145.189, 284.649 157.310 C 281.288 163.056, 280.215 164.081, 275.666 165.893 C 262.016 171.328, 249.626 171.336, 237.036 165.920 C 232.989 164.179, 231.986 163.102, 229.253 157.559 C 224.453 147.825, 215.409 138.793, 205.621 133.957 C 200.846 131.598, 195.337 129.693, 192.250 129.333 C 187.661 128.798, 186.276 129.105, 181.250 131.765 C 165.442 140.134, 148.107 140.189, 133.265 131.917 C 126.888 128.363, 122.755 128.267, 114.127 131.471 M 116.213 148.051 C 108.460 151.926, 100.909 160.046, 97.892 167.753 C 95.798 173.103, 95.613 175.410, 95.219 201.134 L 94.795 228.769 101.148 230.809 C 119.531 236.713, 135.873 239.092, 157.942 239.077 C 167.691 239.070, 176.417 238.777, 177.334 238.425 C 178.798 237.863, 179 235.732, 179 220.819 C 179 205.302, 179.217 203.206, 181.540 196.285 C 186.143 182.573, 195.234 171.934, 207.733 165.633 L 214.043 162.452 210.992 158.304 C 207.731 153.870, 199.626 148.027, 194.169 146.177 C 191.262 145.191, 190.201 145.371, 185.824 147.589 C 169.353 155.936, 146.455 156.092, 129.445 147.974 C 126.018 146.338, 123.013 145, 122.767 145 C 122.521 145, 119.572 146.373, 116.213 148.051 M 319 149.023 C 314.194 150.321, 308.364 153.871, 304.199 158.037 C 301.889 160.346, 300 162.542, 300 162.917 C 300 163.292, 301.564 164.164, 303.475 164.855 C 313.642 168.531, 325.600 181.616, 330.680 194.623 C 333.207 201.095, 333.390 202.684, 333.783 221.620 L 334.201 241.741 345.351 242.410 C 364.208 243.542, 391.530 240.058, 410.500 234.102 L 416.500 232.218 416.438 204.359 C 416.379 177.559, 416.287 176.272, 414.026 170.500 C 410.863 162.428, 401.684 153.136, 394.069 150.298 L 388.638 148.274 382.569 151.099 C 373.468 155.334, 365.684 157, 355 157 C 344.346 157, 336.541 155.336, 327.500 151.136 C 323.352 149.209, 320.728 148.557, 319 149.023 M 215.418 179.533 C 208.673 182.798, 201.742 189.790, 198.299 196.801 L 195.500 202.500 195.195 231.651 L 194.890 260.803 199.695 262.353 C 215.959 267.601, 230.523 270.043, 249.514 270.706 C 271.693 271.481, 290.403 269.134, 311.043 262.987 L 318.136 260.875 317.818 232.187 C 317.500 203.522, 317.498 203.496, 314.840 197.825 C 311.233 190.132, 305.020 183.666, 297.738 180.027 C 290.857 176.589, 289.800 176.436, 286.715 178.435 C 282.211 181.355, 268.676 185.120, 260.653 185.686 C 250.062 186.434, 240.337 184.745, 230.430 180.438 C 226.080 178.547, 222.066 177.016, 221.510 177.037 C 220.955 177.057, 218.213 178.180, 215.418 179.533 M 21.332 186.785 C 7.419 191.770, -1.013 204.859, 0.303 219.428 C 0.724 224.084, 5.784 238.440, 22.004 281 C 45.130 341.677, 44.555 340.518, 58.095 353.721 C 67.358 362.754, 69.728 364.515, 84.235 373.144 C 97.011 380.743, 101.032 384.182, 104.043 390.085 C 106.481 394.863, 109 404.329, 109 408.710 L 109 412 102.073 412 C 95.780 412, 94.955 412.241, 93.073 414.635 C 91.093 417.151, 91 418.472, 91 444 C 91 469.528, 91.093 470.849, 93.073 473.365 L 95.145 476 156.962 476 C 216.336 476, 218.872 475.924, 221.139 474.088 L 223.500 472.177 223.500 444.124 C 223.500 411.675, 223.844 412.868, 214.241 412.010 L 208.533 411.500 205.872 398.290 C 198.266 360.528, 187.161 335.346, 171.283 319.859 C 165.400 314.120, 111.535 272.431, 105.052 268.600 C 102.311 266.979, 99.578 266.453, 93.080 266.294 L 84.660 266.088 72.433 234.026 C 65.708 216.391, 59.547 200.959, 58.741 199.732 C 50.922 187.820, 34.401 182.102, 21.332 186.785 M 472.718 186.033 C 465.525 187.838, 458.395 192.828, 453.812 199.263 C 452.626 200.930, 446.201 216.647, 439.535 234.190 L 427.415 266.087 418.958 266.293 C 412.377 266.454, 409.699 266.974, 406.891 268.633 C 399.552 272.971, 343.324 316.920, 338.330 322.222 C 323.347 338.129, 311.850 366.337, 304.794 404.500 L 303.500 411.500 297.776 412.010 C 288.154 412.867, 288.500 411.668, 288.500 444.124 L 288.500 472.177 290.861 474.088 C 293.128 475.924, 295.664 476, 355.038 476 L 416.855 476 418.927 473.365 C 420.907 470.849, 421 469.528, 421 444 C 421 418.472, 420.907 417.151, 418.927 414.635 C 417.045 412.241, 416.220 412, 409.927 412 L 403 412 403 408.710 C 403 404.329, 405.519 394.863, 407.957 390.085 C 410.748 384.614, 415.081 380.612, 423.329 375.890 C 441.582 365.439, 456.712 352.913, 465.514 340.964 C 467.857 337.784, 475.190 319.858, 490.057 280.964 C 510.968 226.259, 511.259 225.391, 511.379 217.500 C 511.480 210.798, 511.075 208.593, 508.880 203.914 C 505.592 196.903, 500.173 191.427, 493.501 188.372 C 487.621 185.680, 478.303 184.631, 472.718 186.033 M 25.401 202.905 C 20.316 205.215, 16.879 209.893, 16.265 215.341 C 15.861 218.928, 18.664 227.047, 36.637 274.345 C 56.644 326.995, 57.689 329.447, 62.751 335.583 C 69.967 344.332, 79.390 351.888, 92.828 359.702 C 115.731 373.021, 119.791 379.219, 125.609 409.750 L 126.038 412 159.080 412 L 192.123 412 191.430 407.250 C 190.216 398.914, 184.246 375.779, 181.135 367.354 C 176.898 355.879, 171.025 344.560, 165.485 337.191 C 161.698 332.154, 154.768 326.296, 131.121 308.142 C 114.829 295.635, 100.387 284.637, 99.027 283.701 C 93.454 279.866, 84.173 283.191, 82.565 289.598 C 80.927 296.122, 82.440 297.681, 113.570 321.545 C 135.214 338.137, 143.158 344.780, 143.637 346.688 C 145.076 352.422, 140.135 358.004, 134.805 356.666 C 131.889 355.934, 81.961 318.093, 74.753 311.152 C 66.412 303.121, 64.133 291.392, 68.923 281.163 L 71.314 276.061 58.915 243.397 C 52.096 225.433, 45.716 209.418, 44.738 207.809 C 42.815 204.647, 36.031 201.044, 32 201.044 C 30.625 201.044, 27.655 201.882, 25.401 202.905 M 473.271 202.964 C 470.945 204.020, 468.245 206.198, 467.271 207.804 C 466.297 209.410, 459.921 225.434, 453.103 243.413 L 440.706 276.102 443.086 281.184 C 447.867 291.391, 445.580 303.128, 437.247 311.152 C 430.281 317.860, 380.158 355.922, 377.369 356.622 C 372.579 357.824, 367.094 351.747, 368.372 346.656 C 368.817 344.880, 377.454 337.675, 398.419 321.587 C 429.558 297.693, 431.074 296.129, 429.435 289.598 C 428.419 285.550, 423.521 282, 418.951 282 C 414.641 282, 417.176 280.228, 374.330 313.189 C 356.590 326.836, 350.059 332.477, 346.465 337.257 C 341.029 344.487, 334.421 357.255, 330.555 368 C 327.661 376.043, 321.706 399.448, 320.570 407.250 L 319.877 412 352.920 412 L 385.962 412 386.391 409.750 C 389.321 394.374, 390.660 389.446, 393.560 383.368 C 397.919 374.229, 404.249 368.381, 419.172 359.702 C 432.610 351.888, 442.033 344.332, 449.249 335.583 C 454.311 329.447, 455.356 326.995, 475.363 274.345 C 498.093 214.527, 497.972 214.983, 492.982 207.975 C 490.514 204.509, 484.024 201.044, 480 201.044 C 478.625 201.044, 475.597 201.908, 473.271 202.964 M 107 444 L 107 460 157.500 460 L 208 460 208 444 L 208 428 157.500 428 L 107 428 107 444 M 304 444 L 304 460 354.500 460 L 405 460 405 444 L 405 428 354.500 428 L 304 428 304 444" stroke="none"  fill-rule="evenodd"/>
</svg>